<svg width="70" height="70" viewBox="0 0 70 70" fill="none" xmlns="http://www.w3.org/2000/svg">
<path d="M61.25 21.2333V14.5833C61.25 11.375 58.625 8.75 55.4167 8.75H14.5833C11.3458 8.75 8.75 11.375 8.75 14.5833V55.4167C8.75 58.625 11.3458 61.25 14.5833 61.25H55.4167C58.625 61.25 61.25 58.625 61.25 55.4167V48.7667C62.9708 47.7458 64.1667 45.9083 64.1667 43.75V26.25C64.1667 24.0917 62.9708 22.2542 61.25 21.2333ZM58.3333 26.25V43.75H37.9167V26.25H58.3333ZM14.5833 55.4167V14.5833H55.4167V20.4167H37.9167C34.7083 20.4167 32.0833 23.0417 32.0833 26.25V43.75C32.0833 46.9583 34.7083 49.5833 37.9167 49.5833H55.4167V55.4167H14.5833Z" fill="black"/>
<path d="M46.6666 39.375C49.0829 39.375 51.0416 37.4162 51.0416 35C51.0416 32.5838 49.0829 30.625 46.6666 30.625C44.2504 30.625 42.2916 32.5838 42.2916 35C42.2916 37.4162 44.2504 39.375 46.6666 39.375Z" fill="#C7001F"/>
</svg>
