<svg width="70" height="70" viewBox="0 0 70 70" fill="none" xmlns="http://www.w3.org/2000/svg">
<path d="M55.4167 8.75H14.5833C11.375 8.75 8.75 11.375 8.75 14.5833V55.4167C8.75 58.625 11.375 61.25 14.5833 61.25H55.4167C58.625 61.25 61.25 58.625 61.25 55.4167V14.5833C61.25 11.375 58.625 8.75 55.4167 8.75ZM55.4167 55.4167H14.5833V14.5833H55.4167V55.4167Z" fill="black"/>
<path d="M32.8125 22.5166H18.2291V26.8916H32.8125V22.5166Z" fill="black"/>
<path d="M52.5 45.9375H37.9166V50.3125H52.5V45.9375Z" fill="black"/>
<path d="M52.5 38.6458H37.9166V43.0208H52.5V38.6458Z" fill="black"/>
<path d="M23.3333 52.4999H27.7083V46.6666H33.5417V42.2916H27.7083V36.4583H23.3333V42.2916H17.5V46.6666H23.3333V52.4999Z" fill="#C7001F"/>
<path d="M41.0958 31.9375L45.2083 27.825L49.3208 31.9375L52.4125 28.8458L48.3 24.7042L52.4125 20.5917L49.3208 17.5L45.2083 21.6125L41.0958 17.5L38.0042 20.5917L42.1166 24.7042L38.0042 28.8458L41.0958 31.9375Z" fill="#C7001F"/>
</svg>
