<svg width="70" height="70" viewBox="0 0 70 70" fill="none" xmlns="http://www.w3.org/2000/svg">
<path d="M16.1583 24.6749L5.83331 34.9999L16.1583 45.3249L21.2916 40.1624L16.1583 34.9999L21.2916 29.8374L16.1583 24.6749ZM35 53.8416L29.8375 48.7083L24.675 53.8416L35 64.1666L45.325 53.8416L40.1625 48.7083L35 53.8416ZM53.8416 24.6749L48.7083 29.8374L53.8416 34.9999L48.7083 40.1624L53.8416 45.3249L64.1666 34.9999L53.8416 24.6749ZM24.675 16.1583L29.8375 21.2916L35 16.1583L40.1625 21.2916L45.325 16.1583L35 5.83325L24.675 16.1583Z" fill="black"/>
<path d="M35 43.75C39.8325 43.75 43.75 39.8325 43.75 35C43.75 30.1675 39.8325 26.25 35 26.25C30.1675 26.25 26.25 30.1675 26.25 35C26.25 39.8325 30.1675 43.75 35 43.75Z" fill="#C7001F"/>
</svg>
