<svg width="70" height="70" viewBox="0 0 70 70" fill="none" xmlns="http://www.w3.org/2000/svg">
<path d="M55.1833 14.6126C54.6 12.8917 52.9667 11.6667 51.0417 11.6667H18.9583C17.0333 11.6667 15.4292 12.8917 14.8167 14.6126L8.75 32.0834V55.4167C8.75 57.0209 10.0625 58.3334 11.6667 58.3334H14.5833C16.1875 58.3334 17.5 57.0209 17.5 55.4167V52.5001H52.5V55.4167C52.5 57.0209 53.8125 58.3334 55.4167 58.3334H58.3333C59.9375 58.3334 61.25 57.0209 61.25 55.4167V32.0834L55.1833 14.6126ZM19.9792 17.5001H49.9917L53.025 26.2501H16.9458L19.9792 17.5001ZM55.4167 46.6667H14.5833V33.0751L14.9333 32.0834H55.0958L55.4167 33.0751V46.6667Z" fill="black"/>
<path d="M21.875 43.75C24.2912 43.75 26.25 41.7912 26.25 39.375C26.25 36.9588 24.2912 35 21.875 35C19.4588 35 17.5 36.9588 17.5 39.375C17.5 41.7912 19.4588 43.75 21.875 43.75Z" fill="#C7001F"/>
<path d="M48.125 43.75C50.5412 43.75 52.5 41.7912 52.5 39.375C52.5 36.9588 50.5412 35 48.125 35C45.7088 35 43.75 36.9588 43.75 39.375C43.75 41.7912 45.7088 43.75 48.125 43.75Z" fill="#C7001F"/>
</svg>
